<svg width="983" height="450" viewBox="0 0 983 450" fill="none" xmlns="http://www.w3.org/2000/svg">
<path fill-rule="evenodd" clip-rule="evenodd" d="M644.553 381.08C644.553 390.168 651.934 397.547 661.024 397.547C670.114 397.547 677.494 390.168 677.494 381.08C677.494 371.991 670.114 364.613 661.024 364.613C651.934 364.613 644.553 371.991 644.553 381.08Z" fill="url(#paint0_radial)"/>
<path fill-rule="evenodd" clip-rule="evenodd" d="M798.58 430.415C798.58 440.752 806.972 449.145 817.309 449.145C827.646 449.145 836.038 440.752 836.038 430.415C836.038 420.078 827.646 411.686 817.309 411.686C806.972 411.686 798.58 420.078 798.58 430.415V430.415Z" fill="url(#paint1_radial)"/>
<path fill-rule="evenodd" clip-rule="evenodd" d="M861.305 276.812C861.305 287.147 869.698 295.538 880.035 295.538C890.372 295.538 898.764 287.147 898.764 276.812C898.764 266.477 890.372 258.087 880.035 258.087C869.698 258.087 861.305 266.477 861.305 276.812Z" fill="url(#paint2_radial)"/>
<path fill-rule="evenodd" clip-rule="evenodd" d="M808.86 189.204C808.86 199.539 817.254 207.93 827.593 207.93C837.932 207.93 846.326 199.539 846.326 189.204C846.326 178.869 837.932 170.478 827.593 170.478C817.254 170.478 808.86 178.869 808.86 189.204Z" fill="url(#paint3_radial)"/>
<path fill-rule="evenodd" clip-rule="evenodd" d="M829.704 47.474C829.704 57.811 838.094 66.204 848.429 66.204C858.764 66.204 867.155 57.811 867.155 47.474C867.155 37.137 858.764 28.745 848.429 28.745C838.094 28.745 829.704 37.137 829.704 47.474Z" fill="url(#paint4_radial)"/>
<path fill-rule="evenodd" clip-rule="evenodd" d="M918.55 145.899C918.55 156.236 926.942 164.628 937.279 164.628C947.616 164.628 956.009 156.236 956.009 145.899C956.009 135.562 947.616 127.17 937.279 127.17C926.942 127.17 918.55 135.562 918.55 145.899Z" fill="url(#paint5_radial)"/>
<path fill-rule="evenodd" clip-rule="evenodd" d="M721.896 18.997C721.896 29.332 730.288 37.722 740.625 37.722C750.962 37.722 759.355 29.332 759.355 18.997C759.355 8.66199 750.962 0.270996 740.625 0.270996C730.288 0.270996 721.896 8.66199 721.896 18.997V18.997Z" fill="url(#paint6_radial)"/>
<path fill-rule="evenodd" clip-rule="evenodd" d="M598.74 66.207C598.74 76.542 607.132 84.933 617.469 84.933C627.806 84.933 636.199 76.542 636.199 66.207C636.199 55.872 627.806 47.482 617.469 47.482C607.132 47.482 598.74 55.872 598.74 66.207Z" fill="url(#paint7_radial)"/>
<path fill-rule="evenodd" clip-rule="evenodd" d="M902.883 369.493C902.883 378.583 910.263 385.963 919.354 385.963C928.444 385.963 935.824 378.583 935.824 369.493C935.824 360.402 928.444 353.022 919.354 353.022C910.263 353.022 902.883 360.402 902.883 369.493V369.493Z" fill="url(#paint8_radial)"/>
<path d="M698.758 324.36C699.343 326.554 700.527 328.542 702.176 330.103C703.824 331.663 705.874 332.736 708.097 333.2C710.935 333.793 713.339 335.676 714.939 338.086L715.12 338.376C717.118 341.402 717.74 345.254 716.358 348.606C714.663 352.703 714.439 357.46 716.162 362.115C718.776 369.123 725.639 373.967 733.118 373.988C745.266 374.039 754.106 362.846 751.318 351.675C748.3 339.585 739.691 337.348 733.95 337.297C730.164 337.254 726.696 335.176 724.604 332.027L724.039 331.172C722.526 328.87 722.171 326.09 722.663 323.375C723.04 321.326 722.888 319.118 722.099 316.953C720.455 312.443 716.119 309.287 711.326 308.982C711.068 308.968 710.809 308.961 710.551 308.961C702.414 308.961 696.788 316.939 698.758 324.36V324.36Z" fill="url(#paint9_radial)"/>
<path d="M799.246 300.613C796.321 306.094 796.806 312.544 800.057 317.446C802.265 320.791 803.271 324.787 802.605 328.74L802.417 329.884C801.613 334.713 798.341 338.644 793.932 340.765C788.357 343.444 783.709 348.258 781.327 354.854C778.041 363.998 780.632 374.502 787.785 381.076C799.702 392.023 818.467 389.069 825.924 375.61C834.026 360.942 827.597 350.865 822 345.551C818.388 342.126 816.759 337.123 817.577 332.222L817.751 331.158C818.41 327.234 820.654 323.831 823.81 321.42C825.475 320.144 826.88 318.561 827.952 316.758C832.636 308.859 829.957 298.637 821.95 294.061C819.515 292.674 816.759 291.948 813.957 291.954C808.02 291.954 802.178 295.118 799.246 300.613V300.613Z" fill="url(#paint10_radial)"/>
<path d="M867.589 212.013C861.385 212.266 856.071 215.973 853.501 221.258C851.734 224.849 848.802 227.745 845.059 229.178L843.98 229.598C839.405 231.35 834.359 230.525 830.297 227.796C825.15 224.357 818.648 222.786 811.756 224.089C802.214 225.884 794.475 233.443 792.44 242.956C789.045 258.775 801.106 273.45 816.491 273.044C833.237 272.588 838.666 261.931 840.404 254.423C841.526 249.573 845.008 245.627 849.649 243.839L850.663 243.462C854.37 242.036 858.446 242.239 862.123 243.738C864.067 244.524 866.144 244.93 868.241 244.932C877.421 244.968 884.871 237.475 884.762 228.259C884.646 219.368 877.073 212.006 868.248 212.006C868.031 212.006 867.814 212.006 867.589 212.013V212.013Z" fill="url(#paint11_radial)"/>
<path d="M698.026 406.748C690.164 417.521 694.327 432.631 706.048 437.467C718.812 442.752 726.472 436.54 730.301 431.465C732.77 428.193 736.716 426.39 740.814 426.6L741.697 426.643C744.976 426.817 747.974 428.337 750.24 430.705C751.439 431.951 752.867 432.954 754.446 433.659C761.353 436.757 769.476 433.608 772.473 426.636C775.441 419.737 771.974 411.411 764.994 408.645C762.718 407.749 760.242 407.483 757.828 407.876C755.414 408.268 753.15 409.304 751.275 410.875C748.748 412.996 745.57 414.191 742.269 414.017L741.313 413.966C737.281 413.757 733.762 411.447 731.612 408.03C728.897 403.708 724.524 400.348 718.892 399.016C717.412 398.665 715.895 398.488 714.374 398.488C708.025 398.488 701.835 401.521 698.026 406.748V406.748Z" fill="url(#paint12_radial)"/>
<path d="M904.722 78.012C898.525 78.265 893.211 81.965 890.634 87.235C888.874 90.841 885.942 93.737 882.199 95.17L881.113 95.583C876.538 97.342 871.492 96.517 867.43 93.794C862.29 90.348 855.781 88.785 848.889 90.08C839.347 91.876 831.608 99.442 829.581 108.94C826.185 124.766 838.247 139.441 853.624 139.029C870.369 138.58 875.799 127.93 877.544 120.408C878.659 115.564 882.149 111.612 886.789 109.838L887.796 109.447C891.502 108.021 895.578 108.231 899.256 109.729C901.199 110.518 903.276 110.926 905.374 110.931C914.554 110.953 922.011 103.46 921.895 94.251C921.779 85.367 914.214 77.997 905.395 77.997C905.171 77.997 904.947 78.005 904.722 78.012V78.012Z" fill="url(#paint13_radial)"/>
<path d="M873.157 156.064C865.28 160.632 862.63 171.246 867.43 178.985C870.695 184.27 876.516 187.086 882.38 186.739C886.391 186.507 890.344 187.644 893.435 190.207L894.333 190.952C898.105 194.065 899.857 198.865 899.481 203.752C898.996 209.921 900.82 216.357 905.33 221.721C911.578 229.164 921.967 232.19 931.249 229.301C946.698 224.509 953.569 206.786 945.663 193.588C937.062 179.217 925.109 179.709 917.71 181.881C912.939 183.278 907.792 182.178 903.962 179.007L903.129 178.326C900.067 175.792 898.25 172.136 897.75 168.198C897.485 166.117 896.821 164.106 895.796 162.276C892.784 156.875 887.18 153.841 881.41 153.841C878.608 153.841 875.763 154.551 873.157 156.064V156.064Z" fill="url(#paint14_radial)"/>
<path d="M954.358 243.209C949.898 247.524 948.385 253.815 949.971 259.47C951.05 263.336 950.774 267.441 948.943 271.003L948.407 272.038C946.155 276.382 941.841 279.126 936.99 279.792C930.858 280.631 924.965 283.788 920.679 289.341C914.742 297.03 913.989 307.824 918.782 316.273C926.767 330.347 945.54 333.294 956.754 322.767C968.968 311.292 965.942 299.723 962.242 292.946C959.853 288.588 959.831 283.325 962.112 278.908L962.611 277.953C964.436 274.42 967.614 271.871 971.364 270.539C973.341 269.839 975.163 268.762 976.729 267.368C983.614 261.28 984.2 250.731 977.982 243.926C974.789 240.422 970.3 238.655 965.804 238.655C961.656 238.655 957.507 240.161 954.358 243.209V243.209Z" fill="url(#paint15_radial)"/>
<path d="M722.425 214.887C716.336 230.503 724.046 239.64 730.301 244.157C734.327 247.068 736.614 251.817 736.462 256.784L736.419 257.87C736.296 261.837 734.515 265.508 731.72 268.317C730.232 269.799 729.047 271.558 728.231 273.493C724.64 281.942 728.651 291.716 737.186 295.191C745.628 298.615 755.641 294.206 758.819 285.678C760.991 279.857 759.651 273.522 755.785 269.091C753.15 266.08 751.63 262.25 751.753 258.253L751.789 257.088C751.948 252.194 754.663 247.864 758.761 245.171C763.923 241.776 767.89 236.389 769.374 229.533C771.423 220.035 767.456 209.971 759.485 204.404C755.004 201.269 749.957 199.821 745.027 199.821C735.355 199.814 726.124 205.403 722.425 214.887V214.887Z" fill="url(#paint16_radial)"/>
<path d="M662.197 49.943C656.115 65.552 663.826 74.689 670.074 79.214C674.113 82.131 676.394 86.866 676.235 91.832L676.206 92.911C676.068 96.886 674.302 100.556 671.493 103.373C670.013 104.855 668.83 106.607 668.01 108.535C664.419 116.998 668.437 126.772 676.973 130.24C685.408 133.671 695.42 129.255 698.606 120.719C700.77 114.906 699.431 108.578 695.565 104.155C692.93 101.128 691.402 97.306 691.532 93.295L691.569 92.129C691.721 87.235 694.443 82.913 698.54 80.227C703.702 76.824 707.677 71.438 709.154 64.582C711.203 55.083 707.228 45.02 699.264 39.46C694.783 36.325 689.737 34.87 684.799 34.87C675.134 34.87 665.904 40.452 662.197 49.943V49.943Z" fill="url(#paint17_radial)"/>
<path d="M785.324 30.287C779.713 32.951 776.267 38.432 775.955 44.289C775.738 48.285 774.167 52.101 771.286 54.888L770.453 55.692C766.927 59.087 761.961 60.303 757.154 59.384C751.08 58.225 744.484 59.319 738.634 63.206C730.555 68.593 726.385 78.576 728.224 88.118C731.279 104.01 748.126 112.806 762.12 106.421C777.36 99.463 778.193 87.539 776.86 79.938C775.999 75.036 777.657 70.041 781.24 66.587L782.022 65.842C784.882 63.076 788.705 61.679 792.679 61.621C794.775 61.5861 796.844 61.1485 798.775 60.332C807.246 56.77 811.177 46.968 807.47 38.533C804.792 32.423 798.573 28.745 792.202 28.745C789.878 28.745 787.525 29.237 785.324 30.287V30.287Z" fill="url(#paint18_radial)"/>
<path d="M766.051 124.136C764.256 128.777 760.252 132.187 755.409 133.295L754.352 133.541C750.479 134.431 746.475 133.642 743.051 131.644C741.235 130.592 739.234 129.897 737.157 129.595C728.072 128.278 719.637 134.634 718.45 143.778C717.277 152.813 724.09 161.371 733.154 162.283C736.105 162.574 739.08 162.062 741.764 160.804C744.449 159.545 746.744 157.585 748.408 155.13C750.667 151.807 753.975 149.367 757.878 148.469L759.014 148.216C763.785 147.108 768.665 148.65 772.307 151.915C776.911 156.049 783.13 158.518 790.131 158.207C799.839 157.78 808.563 151.38 811.923 142.265C817.512 127.076 807.637 110.844 792.361 109.078C790.998 108.919 789.628 108.84 788.256 108.839C774.551 108.831 768.6 117.563 766.051 124.136V124.136Z" fill="url(#paint19_radial)"/>
<path d="M563.352 92.716C550.06 101.954 548.844 120.915 560.348 131.123C572.887 142.236 584.13 138.174 590.537 133.874C594.671 131.101 599.906 130.602 604.517 132.462L605.517 132.875C609.194 134.366 612.025 137.306 613.69 140.918C614.572 142.821 615.81 144.536 617.339 145.972C624.021 152.263 634.577 151.886 640.796 145.081C646.935 138.355 646.262 127.43 639.363 121.494C634.657 117.44 628.249 116.506 622.762 118.598C619.012 120.031 614.892 120.133 611.178 118.627L610.107 118.178C605.567 116.346 602.447 112.299 601.339 107.521C599.949 101.498 596.264 95.908 590.349 92.151C586.404 89.639 581.85 88.394 577.303 88.394C572.395 88.394 567.493 89.842 563.352 92.716V92.716Z" fill="url(#paint20_radial)"/>
<path d="M852.762 328.038C844.646 342.705 851.083 352.776 856.679 358.09C860.284 361.514 861.921 366.517 861.103 371.426L860.929 372.49C860.27 376.407 858.026 379.809 854.862 382.22C853.196 383.499 851.793 385.087 850.728 386.897C846.051 394.788 848.73 405.011 856.73 409.586C864.643 414.104 875.14 411.063 879.434 403.027C882.358 397.554 881.866 391.096 878.63 386.195C876.415 382.85 875.408 378.861 876.067 374.908L876.263 373.764C877.066 368.921 880.339 365.004 884.748 362.883C890.322 360.189 894.97 355.382 897.345 348.787C900.646 339.65 898.047 329.145 890.894 322.572C885.949 318.025 879.825 315.875 873.823 315.875C865.352 315.875 857.121 320.153 852.762 328.038V328.038Z" fill="url(#paint21_radial)"/>
<path d="M0.997986 173.281H35.669V294.852H110.796V323.101H0.997986V173.281ZM232.151 264.669L208.39 207.308L184.636 264.669H232.151ZM243.069 291H173.502L160.231 323.101H124.705L191.485 173.281H225.729L292.719 323.101H256.332L243.069 291ZM407.871 246.804C413.294 242.308 416.009 235.922 416.009 227.647C416.009 219.227 413.294 212.769 407.871 208.273C402.441 203.785 394.528 201.533 384.11 201.533H355.861V253.544H384.11C394.528 253.544 402.441 251.292 407.871 246.804ZM420.606 179.915C430.373 184.339 437.902 190.616 443.187 198.746C448.465 206.883 451.107 216.512 451.107 227.647C451.107 238.637 448.465 248.23 443.187 256.433C437.902 264.642 430.373 270.912 420.606 275.27C410.832 279.622 399.307 281.793 386.036 281.793H355.861V323.104H321.182V173.284H386.036C399.307 173.284 410.832 175.492 420.606 179.915" fill="#242F5F"/>
<path fill-rule="evenodd" clip-rule="evenodd" d="M488.565 173.28H523.236V323.1H488.565V173.28Z" fill="#242F5F"/>
<path d="M586.48 320.856C575.417 317.648 566.534 313.471 559.83 308.338L571.602 282.224C578.024 286.93 585.654 290.716 594.508 293.569C603.355 296.421 612.195 297.848 621.042 297.848C630.896 297.848 638.172 296.385 642.877 293.46C647.583 290.543 649.943 286.648 649.943 281.79C649.943 278.228 648.553 275.267 645.766 272.914C642.986 270.561 639.417 268.671 635.066 267.245C630.707 265.812 624.829 264.248 617.408 262.532C605.991 259.824 596.644 257.109 589.368 254.395C582.092 251.687 575.852 247.336 570.639 241.348C565.434 235.347 562.827 227.361 562.827 217.37C562.827 208.668 565.187 200.784 569.893 193.718C574.599 186.659 581.694 181.056 591.185 176.914C600.677 172.78 612.275 170.717 625.973 170.717C635.522 170.717 644.868 171.854 654.005 174.134C663.134 176.422 671.127 179.702 677.976 183.98L667.276 210.304C653.44 202.456 639.591 198.532 625.755 198.532C616.047 198.532 608.879 200.103 604.246 203.245C599.605 206.38 597.289 210.521 597.289 215.662C597.289 220.802 599.96 224.617 605.317 227.115C610.668 229.606 618.834 232.067 629.824 234.492C641.234 237.207 650.581 239.915 657.857 242.623C665.14 245.338 671.38 249.623 676.586 255.473C681.799 261.323 684.398 269.243 684.398 279.227C684.398 287.792 682.008 295.603 677.23 302.662C672.452 309.728 665.277 315.324 655.721 319.473C646.157 323.607 634.53 325.67 620.832 325.67C608.988 325.67 597.535 324.063 586.48 320.856" fill="#242F5F"/>
<path d="M6.80299 378.095V361.726H0.467987V359.025H16.084V361.726H9.75699V378.095H6.80299ZM23.085 369.71H27.342C28.993 369.71 30.26 369.348 31.099 368.653C31.925 367.958 32.323 367.002 32.323 365.728C32.323 364.432 31.925 363.462 31.099 362.774C30.267 362.079 29 361.724 27.342 361.724H23.085V369.71V369.71ZM32.685 378.093L28.587 372.338L28.298 372.352C28.001 372.367 27.704 372.381 27.4 372.381H23.085V378.093H20.131V359.024H27.4C29.811 359.024 31.744 359.625 33.141 360.805C34.56 361.999 35.284 363.657 35.284 365.728C35.284 367.248 34.886 368.551 34.111 369.608C33.5596 370.353 32.8436 370.96 32.019 371.382L31.483 371.672L36.059 378.093H32.685V378.093Z" fill="#242F5F"/>
<path fill-rule="evenodd" clip-rule="evenodd" d="M40.792 359.024H43.746V378.094H40.792V359.024Z" fill="#242F5F"/>
<path d="M53.918 370.686H60.94L57.429 362.83L53.918 370.686V370.686ZM64.271 378.092L62.106 373.277H52.752L50.587 378.092H47.445L56.169 359.03H58.718L67.434 378.092H64.271ZM71.13 378.095V359.025H74.091V375.394H84.176V378.095H71.13ZM93.634 378.25C92.251 378.25 90.897 378.026 89.608 377.577C88.313 377.128 87.292 376.513 86.56 375.746L86.307 375.478L87.545 373.031L88.059 373.545C88.66 374.146 89.478 374.631 90.47 375.007C91.482 375.385 92.5536 375.579 93.634 375.579C95.125 375.579 96.24 375.311 96.95 374.79C97.623 374.305 97.949 373.689 97.949 372.915C97.949 372.336 97.782 371.894 97.449 371.561C97.0458 371.17 96.5613 370.873 96.03 370.692C95.407 370.468 94.539 370.222 93.431 369.954C92.055 369.606 90.941 369.259 90.122 368.94C89.2474 368.596 88.4679 368.047 87.849 367.34C87.183 366.594 86.85 365.581 86.85 364.343C86.85 363.329 87.125 362.403 87.654 361.57C88.197 360.745 89.015 360.079 90.101 359.594C91.151 359.116 92.468 358.877 94.017 358.877C95.096 358.877 96.16 359.029 97.188 359.326C98.224 359.623 99.136 360.028 99.896 360.564L100.258 360.81L99.201 363.308L98.673 362.96C97.9729 362.493 97.2062 362.134 96.399 361.896C95.6251 361.67 94.8233 361.552 94.017 361.548C92.562 361.548 91.476 361.816 90.767 362.359C90.101 362.873 89.782 363.489 89.782 364.292C89.782 364.871 89.949 365.32 90.289 365.661C90.658 366.037 91.151 366.334 91.737 366.537C92.389 366.761 93.257 367.007 94.35 367.275C95.697 367.615 96.798 367.941 97.623 368.26C98.513 368.622 99.281 369.15 99.889 369.845C100.548 370.584 100.874 371.583 100.874 372.813C100.881 373.796 100.596 374.759 100.055 375.579C99.512 376.412 98.68 377.07 97.572 377.548C96.501 378.019 95.176 378.25 93.634 378.25V378.25ZM118.326 378.095V361.726H111.992V359.025H127.615V361.726H121.28V378.095H118.326V378.095ZM139.798 361.629C138.466 361.629 137.25 361.926 136.178 362.526C135.123 363.103 134.25 363.963 133.659 365.01C133.036 366.074 132.732 367.232 132.732 368.564C132.732 369.889 133.036 371.055 133.652 372.119C134.267 373.191 135.092 373.994 136.178 374.602C137.25 375.196 138.466 375.5 139.798 375.5C141.145 375.5 142.325 375.203 143.404 374.602C144.453 374.025 145.318 373.164 145.901 372.119C146.509 371.055 146.814 369.889 146.814 368.564C146.814 367.232 146.509 366.074 145.901 365.002C145.319 363.957 144.454 363.099 143.404 362.526C142.318 361.918 141.145 361.629 139.798 361.629V361.629ZM139.798 378.251C137.938 378.251 136.222 377.824 134.687 376.984C133.196 376.177 131.954 374.978 131.096 373.516C130.242 372.039 129.8 370.382 129.8 368.564C129.8 366.747 130.242 365.082 131.096 363.612C131.954 362.148 133.196 360.947 134.687 360.137C136.222 359.305 137.938 358.878 139.798 358.878C141.659 358.878 143.367 359.297 144.873 360.123C146.363 360.934 147.604 362.135 148.464 363.598C149.326 365.082 149.767 366.747 149.767 368.564C149.767 370.382 149.326 372.047 148.457 373.531C147.601 374.992 146.362 376.192 144.873 376.999C143.367 377.831 141.659 378.251 139.798 378.251ZM158 375.394H162.8C164.284 375.394 165.594 375.105 166.702 374.518C167.802 373.932 168.635 373.143 169.243 372.122C169.851 371.087 170.148 369.928 170.148 368.567C170.148 367.213 169.844 366.019 169.243 365.005C168.635 363.977 167.802 363.188 166.702 362.602C165.601 362.023 164.291 361.726 162.8 361.726H158V375.394ZM155.046 378.095V359.025H162.901C164.885 359.025 166.659 359.438 168.193 360.234C169.728 361.038 170.944 362.182 171.799 363.63C172.646 365.063 173.08 366.728 173.08 368.567C173.08 370.406 172.646 372.057 171.799 373.498C170.944 374.946 169.728 376.089 168.193 376.886C166.666 377.689 164.892 378.095 162.901 378.095H155.046ZM181.395 370.686H188.418L184.906 362.83L181.395 370.686ZM191.748 378.092L189.583 373.277H180.229L178.065 378.092H174.923L183.647 359.03H186.195L194.912 378.092H191.748V378.092ZM201.856 378.095V371.492L194.233 359.025H197.505L203.384 368.661L209.262 359.025H212.405L204.788 371.492V378.095H201.856V378.095ZM224.756 378.095V359.025H238.164V361.726H227.709V367.749H237.027V370.45H227.709V378.095H224.756V378.095ZM251.272 361.629C249.94 361.629 248.724 361.926 247.652 362.526C246.573 363.127 245.741 363.931 245.133 365.01C244.51 366.074 244.206 367.232 244.206 368.564C244.206 369.889 244.51 371.055 245.125 372.119C245.721 373.165 246.596 374.024 247.652 374.602C248.724 375.196 249.94 375.5 251.272 375.5C252.626 375.5 253.799 375.203 254.877 374.602C255.924 374.026 256.79 373.168 257.375 372.126C257.983 371.048 258.287 369.889 258.287 368.564C258.287 367.232 257.983 366.074 257.375 365.002C256.793 363.957 255.927 363.098 254.877 362.526C253.813 361.926 252.597 361.629 251.272 361.629V361.629ZM251.272 378.251C249.411 378.251 247.696 377.824 246.168 376.984C244.672 376.182 243.426 374.982 242.57 373.516C241.715 372.039 241.274 370.382 241.274 368.564C241.274 366.747 241.715 365.082 242.57 363.612C243.429 362.146 244.673 360.944 246.168 360.137C247.688 359.305 249.411 358.878 251.272 358.878C253.133 358.878 254.841 359.297 256.347 360.123C257.838 360.93 259.078 362.133 259.931 363.598C260.8 365.082 261.241 366.747 261.241 368.564C261.241 370.382 260.8 372.047 259.931 373.531C259.076 375.001 257.867 376.166 256.347 376.999C254.841 377.831 253.133 378.251 251.272 378.251ZM269.474 369.71H273.738C275.382 369.71 276.649 369.348 277.489 368.653C278.314 367.958 278.712 367.002 278.712 365.728C278.712 364.432 278.314 363.462 277.489 362.774C276.656 362.079 275.389 361.724 273.738 361.724H269.474V369.71V369.71ZM279.074 378.093L274.976 372.338L274.687 372.352C274.397 372.367 274.093 372.381 273.789 372.381H269.474V378.093H266.52V359.024H273.789C276.207 359.024 278.133 359.625 279.53 360.805C280.949 361.999 281.673 363.657 281.673 365.728C281.673 367.248 281.282 368.551 280.5 369.601C279.953 370.351 279.236 370.961 278.408 371.382L277.872 371.672L282.455 378.093H279.074ZM299.275 370.686H306.297L302.786 362.83L299.275 370.686V370.686ZM309.628 378.092L307.463 373.277H298.109L295.944 378.092H292.802L301.526 359.03H304.075L312.791 378.092H309.628V378.092ZM328.248 367.136H333.461C334.807 367.136 335.836 366.89 336.523 366.39C337.168 365.941 337.486 365.283 337.486 364.392C337.486 363.502 337.175 362.843 336.531 362.394C335.828 361.894 334.8 361.648 333.461 361.648H328.248V367.136V367.136ZM328.248 375.469H334.076C335.575 375.469 336.712 375.223 337.443 374.745C338.116 374.289 338.442 373.594 338.442 372.602C338.442 371.386 337.986 369.757 334.076 369.757H328.248V375.469V375.469ZM325.287 378.097V359.027H333.591C335.705 359.027 337.378 359.469 338.572 360.345C339.81 361.257 340.447 362.546 340.447 364.189C340.447 365.29 340.165 366.245 339.615 367.02C339.455 367.252 339.273 367.467 339.072 367.664L338.587 368.142L339.159 368.49C339.6 368.765 339.991 369.098 340.31 369.474C341.034 370.329 341.396 371.436 341.396 372.754C341.396 374.47 340.751 375.809 339.47 376.743C338.225 377.648 336.473 378.097 334.105 378.097H325.287V378.097ZM346.75 378.095V359.025H360.158V361.726H349.704V367.083H359.022V369.762H349.704V375.394H360.542V378.095H346.75V378.095ZM369.53 378.095V361.726H363.195V359.025H378.812V361.726H372.484V378.095H369.53V378.095ZM386.612 378.095V361.726H380.284V359.025H395.9V361.726H389.573V378.095H386.612V378.095ZM399.942 378.095V359.025H413.35V361.726H402.896V367.083H412.214V369.762H402.896V375.394H413.734V378.095H399.942V378.095ZM422.171 369.71H426.435C428.085 369.71 429.352 369.348 430.185 368.653C431.01 367.958 431.409 367.002 431.409 365.728C431.409 364.432 431.01 363.462 430.185 362.774C429.352 362.079 428.085 361.724 426.435 361.724H422.171V369.71V369.71ZM431.771 378.093L427.673 372.338L427.383 372.352C427.094 372.367 426.79 372.381 426.486 372.381H422.171V378.093H419.217V359.024H426.486C428.904 359.024 430.829 359.625 432.227 360.805C433.646 361.999 434.37 363.657 434.37 365.728C434.37 367.248 433.979 368.551 433.197 369.608C432.647 370.354 431.93 370.962 431.104 371.382L430.569 371.672L435.144 378.093H431.771V378.093ZM452.179 378.095V361.726H445.845V359.025H461.461V361.726H455.141V378.095H452.179ZM473.652 361.629C472.305 361.629 471.125 361.918 470.032 362.526C468.953 363.127 468.121 363.931 467.505 365.01C466.89 366.074 466.586 367.232 466.586 368.564C466.586 369.889 466.883 371.055 467.505 372.119C468.099 373.166 468.975 374.026 470.032 374.602C471.118 375.203 472.305 375.5 473.652 375.5C474.984 375.5 476.193 375.196 477.25 374.602C478.301 374.028 479.169 373.17 479.755 372.126C480.37 371.048 480.667 369.889 480.667 368.564C480.667 367.254 480.356 366.059 479.755 365.01C479.174 363.962 478.308 363.101 477.257 362.526C476.193 361.926 474.977 361.629 473.652 361.629ZM473.652 378.251C471.791 378.251 470.075 377.824 468.548 376.984C467.02 376.144 465.811 374.979 464.95 373.516C464.088 372.039 463.654 370.382 463.654 368.564C463.654 366.747 464.088 365.082 464.95 363.612C465.808 362.148 467.05 360.946 468.541 360.137C470.068 359.305 471.791 358.878 473.652 358.878C475.505 358.878 477.221 359.297 478.727 360.13C480.218 360.935 481.458 362.135 482.311 363.598C483.179 365.075 483.621 366.74 483.621 368.564C483.621 370.382 483.179 372.047 482.311 373.531C481.458 374.992 480.221 376.192 478.734 376.999C477.221 377.831 475.513 378.251 473.652 378.251V378.251ZM505.778 378.095V365.107L499.531 375.807H498.032L491.777 365.172V378.095H488.895V359.025H491.299L498.814 371.876L506.264 359.025H508.66V378.095H505.778V378.095ZM523.934 361.629C522.588 361.629 521.408 361.918 520.314 362.526C519.26 363.107 518.386 363.966 517.788 365.01C517.165 366.074 516.868 367.232 516.868 368.564C516.868 369.889 517.165 371.048 517.788 372.119C518.403 373.191 519.229 373.994 520.314 374.602C521.4 375.203 522.588 375.5 523.934 375.5C525.281 375.5 526.461 375.203 527.54 374.602C528.587 374.025 529.452 373.168 530.038 372.126C530.646 371.055 530.95 369.889 530.95 368.564C530.95 367.232 530.646 366.074 530.038 365.002C529.454 363.959 528.588 363.101 527.54 362.526C526.476 361.926 525.259 361.629 523.934 361.629V361.629ZM523.934 378.251C522.074 378.251 520.351 377.824 518.83 376.984C517.335 376.18 516.091 374.98 515.232 373.516C514.371 372.039 513.936 370.382 513.936 368.564C513.936 366.747 514.371 365.082 515.232 363.612C516.09 362.148 517.332 360.947 518.823 360.137C520.351 359.305 522.074 358.878 523.934 358.878C525.788 358.878 527.504 359.297 529.009 360.13C530.498 360.937 531.738 362.136 532.593 363.598C533.462 365.075 533.904 366.74 533.904 368.564C533.904 370.382 533.462 372.047 532.593 373.531C531.741 374.992 530.504 376.192 529.017 376.999C527.504 377.831 525.795 378.251 523.934 378.251ZM542.136 369.71H546.393C548.051 369.71 549.318 369.348 550.15 368.653C550.961 367.972 551.374 366.988 551.374 365.728C551.374 364.425 550.976 363.462 550.15 362.774C549.318 362.079 548.051 361.724 546.393 361.724H542.136V369.71V369.71ZM551.736 378.093L547.638 372.338L547.349 372.352C547.059 372.367 546.755 372.381 546.451 372.381H542.136V378.093H539.175V359.024H546.451C548.869 359.024 550.795 359.625 552.192 360.805C553.611 361.999 554.335 363.657 554.335 365.728C554.335 367.248 553.937 368.551 553.162 369.608C552.61 370.356 551.891 370.966 551.063 371.389L550.534 371.672L555.11 378.093H551.736V378.093ZM562.802 369.71H567.059C568.717 369.71 569.976 369.348 570.816 368.653C571.642 367.958 572.04 367.002 572.04 365.728C572.04 364.432 571.642 363.462 570.816 362.774C569.976 362.079 568.717 361.724 567.059 361.724H562.802V369.71V369.71ZM572.402 378.093L568.304 372.338L568.015 372.352C567.718 372.367 567.421 372.381 567.117 372.381H562.802V378.093H559.841V359.024H567.117C569.528 359.024 571.461 359.625 572.858 360.805C574.277 361.999 575.001 363.657 575.001 365.728C575.001 367.248 574.603 368.551 573.828 369.608C573.274 370.353 572.556 370.96 571.729 371.382L571.2 371.672L575.776 378.093H572.402V378.093ZM588.909 361.629C587.576 361.629 586.36 361.926 585.289 362.526C584.233 363.102 583.36 363.963 582.769 365.01C582.147 366.074 581.842 367.232 581.842 368.564C581.842 369.889 582.147 371.055 582.762 372.119C583.377 373.191 584.203 373.994 585.289 374.602C586.36 375.196 587.576 375.5 588.909 375.5C590.255 375.5 591.435 375.203 592.514 374.602C593.563 374.025 594.429 373.164 595.012 372.119C595.62 371.055 595.924 369.889 595.924 368.564C595.924 367.232 595.62 366.074 595.012 365.002C594.43 363.957 593.564 363.099 592.514 362.526C591.428 361.918 590.255 361.629 588.909 361.629V361.629ZM588.909 378.251C587.048 378.251 585.332 377.824 583.797 376.984C582.306 376.177 581.064 374.978 580.206 373.516C579.352 372.039 578.91 370.382 578.91 368.564C578.91 366.747 579.352 365.082 580.206 363.612C581.064 362.148 582.306 360.947 583.797 360.137C585.325 359.305 587.048 358.878 588.909 358.878C590.769 358.878 592.478 359.297 593.984 360.123C595.475 360.93 596.715 362.133 597.567 363.598C598.436 365.082 598.878 366.747 598.878 368.564C598.878 370.382 598.436 372.047 597.567 373.531C596.713 375.001 595.504 376.166 593.984 376.999C592.478 377.831 590.769 378.251 588.909 378.251ZM620.412 378.095L615.511 363.818L610.588 378.095H607.859L601.43 359.025H604.492L609.321 373.418L614.317 359.025H616.836L621.766 373.49L626.668 359.025H629.6L623.171 378.095H620.412V378.095Z" fill="#242F5F"/>
<defs>
<radialGradient id="paint0_radial" cx="0" cy="0" r="1" gradientUnits="userSpaceOnUse" gradientTransform="translate(722.948 231.187) rotate(11.418) scale(236.982 236.981)">
<stop stop-color="#52CAF5"/>
<stop offset="1" stop-color="#416DB5"/>
</radialGradient>
<radialGradient id="paint1_radial" cx="0" cy="0" r="1" gradientUnits="userSpaceOnUse" gradientTransform="translate(722.948 231.186) rotate(11.418) scale(236.982)">
<stop stop-color="#52CAF5"/>
<stop offset="1" stop-color="#416DB5"/>
</radialGradient>
<radialGradient id="paint2_radial" cx="0" cy="0" r="1" gradientUnits="userSpaceOnUse" gradientTransform="translate(722.948 231.187) rotate(11.418) scale(236.981)">
<stop stop-color="#52CAF5"/>
<stop offset="1" stop-color="#416DB5"/>
</radialGradient>
<radialGradient id="paint3_radial" cx="0" cy="0" r="1" gradientUnits="userSpaceOnUse" gradientTransform="translate(722.948 231.187) rotate(11.418) scale(236.982)">
<stop stop-color="#52CAF5"/>
<stop offset="1" stop-color="#416DB5"/>
</radialGradient>
<radialGradient id="paint4_radial" cx="0" cy="0" r="1" gradientUnits="userSpaceOnUse" gradientTransform="translate(722.947 231.186) rotate(11.418) scale(236.982 236.981)">
<stop stop-color="#52CAF5"/>
<stop offset="1" stop-color="#416DB5"/>
</radialGradient>
<radialGradient id="paint5_radial" cx="0" cy="0" r="1" gradientUnits="userSpaceOnUse" gradientTransform="translate(722.948 231.187) rotate(11.418) scale(236.981 236.982)">
<stop stop-color="#52CAF5"/>
<stop offset="1" stop-color="#416DB5"/>
</radialGradient>
<radialGradient id="paint6_radial" cx="0" cy="0" r="1" gradientUnits="userSpaceOnUse" gradientTransform="translate(722.948 231.187) rotate(11.418) scale(236.981)">
<stop stop-color="#52CAF5"/>
<stop offset="1" stop-color="#416DB5"/>
</radialGradient>
<radialGradient id="paint7_radial" cx="0" cy="0" r="1" gradientUnits="userSpaceOnUse" gradientTransform="translate(722.947 231.187) rotate(11.418) scale(236.981)">
<stop stop-color="#52CAF5"/>
<stop offset="1" stop-color="#416DB5"/>
</radialGradient>
<radialGradient id="paint8_radial" cx="0" cy="0" r="1" gradientUnits="userSpaceOnUse" gradientTransform="translate(722.948 231.187) rotate(11.418) scale(236.981 236.982)">
<stop stop-color="#52CAF5"/>
<stop offset="1" stop-color="#416DB5"/>
</radialGradient>
<radialGradient id="paint9_radial" cx="0" cy="0" r="1" gradientUnits="userSpaceOnUse" gradientTransform="translate(722.948 231.187) rotate(11.418) scale(236.981)">
<stop stop-color="#52CAF5"/>
<stop offset="1" stop-color="#416DB5"/>
</radialGradient>
<radialGradient id="paint10_radial" cx="0" cy="0" r="1" gradientUnits="userSpaceOnUse" gradientTransform="translate(722.948 231.187) rotate(11.418) scale(236.982)">
<stop stop-color="#52CAF5"/>
<stop offset="1" stop-color="#416DB5"/>
</radialGradient>
<radialGradient id="paint11_radial" cx="0" cy="0" r="1" gradientUnits="userSpaceOnUse" gradientTransform="translate(722.947 231.187) rotate(11.418) scale(236.982)">
<stop stop-color="#52CAF5"/>
<stop offset="1" stop-color="#416DB5"/>
</radialGradient>
<radialGradient id="paint12_radial" cx="0" cy="0" r="1" gradientUnits="userSpaceOnUse" gradientTransform="translate(722.948 231.187) rotate(11.418) scale(236.982 236.981)">
<stop stop-color="#52CAF5"/>
<stop offset="1" stop-color="#416DB5"/>
</radialGradient>
<radialGradient id="paint13_radial" cx="0" cy="0" r="1" gradientUnits="userSpaceOnUse" gradientTransform="translate(722.948 231.187) rotate(11.418) scale(236.982)">
<stop stop-color="#52CAF5"/>
<stop offset="1" stop-color="#416DB5"/>
</radialGradient>
<radialGradient id="paint14_radial" cx="0" cy="0" r="1" gradientUnits="userSpaceOnUse" gradientTransform="translate(722.947 231.187) rotate(11.418) scale(236.982 236.981)">
<stop stop-color="#52CAF5"/>
<stop offset="1" stop-color="#416DB5"/>
</radialGradient>
<radialGradient id="paint15_radial" cx="0" cy="0" r="1" gradientUnits="userSpaceOnUse" gradientTransform="translate(722.947 231.187) rotate(11.418) scale(236.982)">
<stop stop-color="#52CAF5"/>
<stop offset="1" stop-color="#416DB5"/>
</radialGradient>
<radialGradient id="paint16_radial" cx="0" cy="0" r="1" gradientUnits="userSpaceOnUse" gradientTransform="translate(722.948 231.187) rotate(11.418) scale(236.982 236.981)">
<stop stop-color="#52CAF5"/>
<stop offset="1" stop-color="#416DB5"/>
</radialGradient>
<radialGradient id="paint17_radial" cx="0" cy="0" r="1" gradientUnits="userSpaceOnUse" gradientTransform="translate(722.948 231.187) rotate(11.418) scale(236.981)">
<stop stop-color="#52CAF5"/>
<stop offset="1" stop-color="#416DB5"/>
</radialGradient>
<radialGradient id="paint18_radial" cx="0" cy="0" r="1" gradientUnits="userSpaceOnUse" gradientTransform="translate(722.948 231.187) rotate(11.418) scale(236.981)">
<stop stop-color="#52CAF5"/>
<stop offset="1" stop-color="#416DB5"/>
</radialGradient>
<radialGradient id="paint19_radial" cx="0" cy="0" r="1" gradientUnits="userSpaceOnUse" gradientTransform="translate(722.948 231.187) rotate(11.418) scale(236.981)">
<stop stop-color="#52CAF5"/>
<stop offset="1" stop-color="#416DB5"/>
</radialGradient>
<radialGradient id="paint20_radial" cx="0" cy="0" r="1" gradientUnits="userSpaceOnUse" gradientTransform="translate(722.948 231.187) rotate(11.418) scale(236.981)">
<stop stop-color="#52CAF5"/>
<stop offset="1" stop-color="#416DB5"/>
</radialGradient>
<radialGradient id="paint21_radial" cx="0" cy="0" r="1" gradientUnits="userSpaceOnUse" gradientTransform="translate(722.948 231.187) rotate(11.418) scale(236.981 236.981)">
<stop stop-color="#52CAF5"/>
<stop offset="1" stop-color="#416DB5"/>
</radialGradient>
</defs>
</svg>
